<?xml version="1.0" encoding="UTF-8" standalone="no"?>
<!-- Created with Inkscape (http://www.inkscape.org/) -->

<svg
   xmlns:dc="http://purl.org/dc/elements/1.1/"
   xmlns:cc="http://creativecommons.org/ns#"
   xmlns:rdf="http://www.w3.org/1999/02/22-rdf-syntax-ns#"
   xmlns:svg="http://www.w3.org/2000/svg"
   xmlns="http://www.w3.org/2000/svg"
   xmlns:sodipodi="http://sodipodi.sourceforge.net/DTD/sodipodi-0.dtd"
   xmlns:inkscape="http://www.inkscape.org/namespaces/inkscape"
   version="1.1"
   id="svg2"
   xml:space="preserve"
   width="1024"
   height="1024"
   viewBox="0 0 1024 1024"
   sodipodi:docname="bitcoin.svg"
   inkscape:version="0.92.5 (2060ec1f9f, 2020-04-08)"
   inkscape:export-filename="/home/lexis/al/l15/src/qt/res/icons/bitcoin.png"
   inkscape:export-xdpi="96"
   inkscape:export-ydpi="96"><metadata
     id="metadata8"><rdf:RDF><cc:Work
         rdf:about=""><dc:format>image/svg+xml</dc:format><dc:type
           rdf:resource="http://purl.org/dc/dcmitype/StillImage" /><dc:title></dc:title></cc:Work></rdf:RDF></metadata><defs
     id="defs6" /><sodipodi:namedview
     pagecolor="#ffffff"
     bordercolor="#666666"
     borderopacity="1"
     objecttolerance="10"
     gridtolerance="10"
     guidetolerance="10"
     inkscape:pageopacity="0"
     inkscape:pageshadow="2"
     inkscape:window-width="2371"
     inkscape:window-height="1687"
     id="namedview4"
     showgrid="false"
     inkscape:zoom="0.41214451"
     inkscape:cx="-81.238502"
     inkscape:cy="511.99989"
     inkscape:window-x="754"
     inkscape:window-y="186"
     inkscape:window-maximized="0"
     inkscape:current-layer="g16"
     fit-margin-top="0"
     fit-margin-left="0"
     fit-margin-right="0"
     fit-margin-bottom="0" /><g
     id="g10"
     inkscape:groupmode="layer"
     inkscape:label="L15_ico_mainnet"
     transform="matrix(1.3333333,0,0,-1.3333333,225.69267,798.30746)"><g
       id="g12"
       transform="matrix(1.7882882,0,0,1.7882882,-169.26951,598.73061)"><path
         d="m 0,0 v -303.675 l 125.786,-125.786 h 303.675 v 303.675 L 303.675,0 Z"
         style="fill:#b26fff;fill-opacity:1;fill-rule:nonzero;stroke:none"
         id="path14"
         inkscape:connector-curvature="0" /></g><g
       id="g16"
       transform="translate(270.9767,102.4982)"><path
         d="m 44.338213,-88.471471 v 55.224126 h 30.658412 l 0.472108,-1.663108 0.515027,-1.620189 0.513239,-1.621977 0.515027,-1.543293 0.554369,-1.580847 0.55437,-1.50395 0.552581,-1.50395 0.593711,-1.46282 0.634843,-1.425266 0.591923,-1.423477 0.672396,-1.344793 0.633054,-1.385923 0.672397,-1.303662 0.672396,-1.305451 0.713527,-1.266108 0.709951,-1.226765 0.713527,-1.226766 0.749292,-1.185635 0.751081,-1.148081 0.794,-1.148081 0.790424,-1.067608 0.790423,-1.10695 0.831554,-1.028266 0.829766,-1.028266 0.870896,-0.988923 0.870896,-0.949581 0.869108,-0.949581 0.910239,-0.910239 0.910239,-0.869108 0.910238,-0.870896 0.949581,-0.831554 0.949581,-0.790424 0.988924,-0.790423 0.988927,-0.752869 0.98713,-0.711739 1.02827,-0.711739 1.03005,-0.672396 1.06761,-0.633054 1.06761,-0.633054 1.10874,-0.634842 1.10695,-0.550793 1.14808,-0.554369 1.10695,-0.515027 1.18742,-0.513239 1.18564,-0.475685 1.18742,-0.473896 1.22676,-0.434554 1.22498,-0.397 1.26611,-0.355869 1.26611,-0.35587 1.26432,-0.355869 1.30724,-0.277185 1.30366,-0.316527 1.34658,-0.237842 1.34479,-0.236054 1.38593,-0.1985 1.38234,-0.196712 1.42527,-0.159157 1.42348,-0.118027 1.42526,-0.119816 1.46282,-0.07868 1.50216,-0.07869 1.46461,-0.03934 h 1.54329 l 2.09409,0.03934 2.05832,0.03934 2.01898,0.118027 1.97605,0.119816 1.97964,0.196711 1.9385,0.1985 1.85803,0.277185 1.85982,0.314739 1.85982,0.316527 1.77935,0.397 1.73822,0.434554 1.74179,0.475684 1.66311,0.473897 1.66132,0.554369 1.62197,0.593712 1.58264,0.631265 1.58085,0.672397 1.50216,0.713527 1.50395,0.751081 1.46282,0.790423 1.38592,0.831554 1.38414,0.869108 1.38592,0.910239 1.30366,0.949581 1.26611,0.988923 1.26611,1.028266 1.22676,1.069396 1.18743,1.10695 1.14629,1.148081 1.10695,1.185636 1.06761,1.226765 1.06939,1.305451 0.98714,1.303662 0.99071,1.346581 0.94779,1.423477 0.91024,1.425266 0.91024,1.462819 0.83156,1.543293 0.82976,1.543293 0.79221,1.620189 0.75108,1.663108 0.75108,1.659531 0.6724,1.740005 0.6724,1.781135 0.63305,1.779346 0.59371,1.85982 0.55437,1.899162 0.51324,1.938504 0.51503,1.977847 0.47389,2.017189 0.43635,2.05832 0.39521,2.095873 0.35587,2.135216 0.35587,2.176347 0.31652,2.215689 0.23785,2.255032 0.27718,2.294373 0.19671,2.373059 0.15916,2.373058 0.15737,2.414189 0.11803,2.4517431 0.0787,2.5304277 0.0411,2.532216 0.0376,2.5715584 -0.0376,3.4031124 -0.11981,3.3226393 -0.15737,3.2421665 -0.23784,3.2046126 -0.31653,3.084797 -0.35587,3.047243 -0.23605,1.46282 -0.23785,1.464608 -0.23963,1.462819 -0.27539,1.423478 -0.2754,1.385923 -0.27719,1.423477 -0.35765,1.344793 -0.31474,1.344793 -0.35766,1.344792 -0.35587,1.344793 -0.39521,1.266108 -0.39521,1.30545 -0.43456,1.266108 -0.43634,1.226766 -0.47389,1.226766 -0.47569,1.187423 -0.4739,1.185635 -0.51502,1.187424 -0.55258,1.146292 -0.55437,1.106951 -0.55258,1.108738 -0.55616,1.106951 -0.59193,1.067608 -0.59371,1.069396 -0.59371,1.028266 -0.63126,1.028265 -0.63485,0.988924 -0.63126,0.949581 -0.6724,0.988923 -0.67239,0.910239 -0.6724,0.949581 -0.71353,0.869108 -0.71174,0.910238 -0.75108,0.870897 -0.71352,0.829765 -0.75109,0.829766 -0.79042,0.792212 -0.75287,0.790423 -0.79042,0.792212 -0.79221,0.751081 -0.82798,0.711739 -0.83155,0.711738 -0.83156,0.713527 -0.86911,0.672397 -0.87268,0.672396 -0.86911,0.633054 -0.91024,0.633054 -0.91024,0.591923 -0.90845,0.593712 -0.91024,0.554369 -0.94958,0.55437 -0.94958,0.552581 -1.97606,0.988923 -2.01897,0.910239 -2.01719,0.870896 -2.05832,0.829766 -2.09409,0.713527 -2.17634,0.670608 -2.17635,0.634842 -2.21569,0.552581 -2.25503,0.475685 -2.29259,0.434554 -2.29437,0.316527 -2.37485,0.316527 -2.4124,0.196711 -2.45174,0.1985 -2.45353,0.08047 -2.53222,0.03934 h -2.137 l -2.13522,-0.03934 -2.09587,-0.04113 -2.01898,-0.07868 -2.01719,-0.07869 -1.97606,-0.08047 -1.9385,-0.118027 -1.90095,-0.119815 -1.85803,-0.157369 -1.81869,-0.15737 -1.77935,-0.1985 -1.74179,-0.196711 -1.70066,-0.237843 -1.66311,-0.237842 -1.62019,-0.277185 -1.58264,-0.277184 -3.16348,-0.633054 -3.2046,-0.672394 L 96.159227,73.63685 92.87593,72.807084 89.592633,71.936188 86.268206,70.986607 82.906224,69.958341 79.5049,68.930075 59.409906,81.113683 V 251.68776 H 197.46575 l 2.01719,0.0393 1.9385,0.0393 1.74001,0.11803 1.58263,0.15916 1.46461,0.15737 1.30545,0.23784 1.18743,0.27719 0.98892,0.31652 0.98892,0.35587 0.86911,0.39521 0.8709,0.4739 0.79221,0.51503 0.75108,0.59371 0.71174,0.63305 0.31653,0.31653 0.31473,0.35587 0.31653,0.39521 0.31832,0.39521 0.27539,0.397 0.31653,0.43456 0.31831,0.47389 0.31653,0.55437 0.63127,1.14629 0.63484,1.3448 0.6724,1.54329 0.70995,1.66132 0.67239,1.85982 0.75287,1.97785 h 19.54242 l -3.6803,-58.86151 H 94.022223 V 94.048371 l 1.582635,0.711738 1.66132,0.674185 1.659531,0.670608 1.663111,0.634842 1.70066,0.591924 1.70066,0.593711 1.74179,0.55437 1.77935,0.554369 1.77935,0.513239 1.78113,0.513243 1.81869,0.47568 1.82227,0.47568 1.85803,0.43456 1.85982,0.43455 1.85982,0.397 1.9385,0.35587 1.89738,0.35587 1.89916,0.31653 1.9385,0.27539 1.89738,0.27719 1.89916,0.27718 1.9385,0.1985 1.89916,0.23785 1.93851,0.19671 1.89916,0.15737 1.93851,0.11981 1.89737,0.15916 1.9385,0.0787 1.89917,0.0787 1.89737,0.0787 h 1.9385 l 1.90095,0.0393 1.89738,-0.0393 1.85982,-0.0393 1.85803,-0.0393 1.85982,-0.0787 1.85803,-0.11982 1.82048,-0.11803 1.78113,-0.15915 1.77935,-0.19672 1.77935,-0.1985 1.78113,-0.23784 1.74,-0.2754 1.7418,-0.27718 1.70066,-0.31653 1.70066,-0.31652 1.70066,-0.35587 1.66132,-0.35587 1.66311,-0.43634 1.65953,-0.43456 1.62377,-0.43455 1.62019,-0.47569 1.58442,-0.51502 1.58085,-0.513243 1.58263,-0.552581 1.58264,-0.593712 1.5415,-0.593712 1.50395,-0.633054 1.54151,-0.633054 1.4646,-0.672396 1.50395,-0.711739 1.46282,-0.711738 1.46282,-0.75287 1.46461,-0.790423 1.42348,-0.792212 1.38592,-0.829765 1.38235,-0.831554 1.34479,-0.869108 1.34658,-0.870897 1.3448,-0.910238 1.30545,-0.908451 1.2661,-0.949581 1.26611,-0.949581 1.22498,-0.988923 1.22677,-0.988923 1.18742,-1.030054 1.18742,-1.067608 1.14629,-1.028266 1.10874,-1.106951 1.10695,-1.108738 1.10695,-1.106951 1.0694,-1.148081 1.02827,-1.146292 1.02647,-1.185635 1.02827,-1.226766 0.99071,-1.226766 0.94779,-1.266108 0.94958,-1.266108 0.91024,-1.266108 0.91024,-1.30545 0.91024,-1.344793 0.83155,-1.344792 0.86911,-1.384135 0.79043,-1.384135 0.83155,-1.425266 0.75108,-1.423478 0.75108,-1.462819 0.75287,-1.464608 0.71174,-1.46282 0.6724,-1.50395 0.67239,-1.502162 0.63306,-1.503951 0.59371,-1.543292 0.59371,-1.541505 0.55258,-1.582635 0.55437,-1.582635 0.51324,-1.582635 0.47568,-1.580847 0.4739,-1.623765 0.43634,-1.659532 0.43456,-1.623765 0.39521,-1.659532 0.35766,-1.70245 0.35408,-1.66132 0.31831,-1.700662 0.31474,-1.740004 0.27897,-1.700662 0.23606,-1.781135 0.23605,-1.740004 0.20029,-1.781135 0.15558,-1.779347 0.15916,-1.820478 0.11981,-1.779346 0.11803,-1.858032 0.0787,-1.8222653 0.0787,-1.8580314 0.0411,-1.8598196 V 3.8560576 1.7208416 l -0.0411,-2.13521607 -0.0787,-2.13700433 -0.11803,-2.0958737 -0.11982,-2.0565314 -0.15737,-2.0583197 -0.15737,-2.0171894 -0.23784,-2.018977 -0.23784,-2.017189 -0.23784,-1.976058 -0.31653,-1.938505 -0.31474,-1.977846 -0.35766,-1.899162 -0.35586,-1.897374 -0.39522,-1.900951 -0.43634,-1.858031 -0.47211,-1.85982 -0.47568,-1.820477 -0.51503,-1.818689 -0.55437,-1.779347 -0.55258,-1.779346 -0.59371,-1.741793 -0.63305,-1.741793 -0.6724,-1.700662 -0.6724,-1.700662 -0.71174,-1.661319 -0.71352,-1.659532 -0.79043,-1.663108 -0.79042,-1.620189 -0.79221,-1.582635 -0.86911,-1.582635 -0.86911,-1.584423 -0.91024,-1.541505 -0.91023,-1.50395 -0.99072,-1.50395 -0.94779,-1.500374 -1.02826,-1.425266 -1.02827,-1.423477 -1.03005,-1.425266 -1.06761,-1.385923 -1.10695,-1.344793 -1.10695,-1.341216 -1.14808,-1.307239 -1.18564,-1.30545 -1.18742,-1.266108 -1.22677,-1.226766 -1.22676,-1.226765 -1.26432,-1.187424 -1.30724,-1.185635 -1.30366,-1.146292 -1.34659,-1.106951 -1.34479,-1.108738 -1.38592,-1.067608 -1.42169,-1.069397 -1.42527,-1.028265 -1.46282,-0.988924 -1.50395,-0.988923 -1.50216,-0.987135 -1.50395,-0.912027 -1.58263,-0.908451 -1.58264,-0.910238 -1.58085,-0.870897 -1.62376,-0.829765 -1.65953,-0.831554 -1.66132,-0.829766 -1.70066,-0.751081 -1.7418,-0.751081 -1.70066,-0.713527 -1.77935,-0.711739 -1.78113,-0.672396 -1.77935,-0.633054 -1.82047,-0.633054 -1.82048,-0.593712 -1.85982,-0.554372 -1.85803,-0.55258 -1.89917,-0.51324 -1.93671,-0.47568 -1.90095,-0.47569 -1.97606,-0.43455 -1.97963,-0.43634 -1.97606,-0.39521 -2.01719,-0.35587 -2.01898,-0.35408 -2.05653,-0.27719 -2.05832,-0.31653 -2.09587,-0.23784 -2.09588,-0.23784 -2.137,-0.23784 -2.13522,-0.19671 -2.17635,-0.15916 -2.17455,-0.11803 -2.21569,-0.11981 -2.21569,-0.0787 -2.25503,-0.0787 -2.25503,-0.0393 h -2.25325 -2.8094 l -2.80761,0.0787 -2.8094,0.0805 -2.8094,0.11803 -2.84696,0.15737 -2.8094,0.19671 -2.80761,0.23784 -2.8094,0.23784 -2.84874,0.31832 -2.80762,0.31653 -2.84874,0.35587 -2.8094,0.39521 -2.846954,0.43455 -2.809401,0.4739 -2.846955,0.51324 -2.848743,0.55615 -2.807612,0.55437 -2.848743,0.63127 -2.848743,0.63484 -2.848743,0.672398 -2.848743,0.70995 -2.846955,0.752869 -2.848743,0.790424 -2.848743,0.829765 -2.886297,0.870897 -2.848743,0.870896 -2.848743,0.949581 -2.886297,0.947793 -2.848743,0.990711 -2.848743,1.028266 -2.886297,1.067608 z m -59.455216,142.408538 0.03934,-4.113062 0.07869,-3.837667 0.119815,-3.599824 0.196712,-3.322639 0.07869,-1.582635 0.159157,-1.503951 0.118027,-1.423477 0.159158,-1.344793 0.157369,-1.30545 0.196712,-1.226766 0.1985,-1.146292 0.1985,-1.067608 0.237842,-1.069397 0.237843,-1.028265 0.275396,-0.987135 0.277185,-0.95137 0.316527,-0.987135 0.316527,-0.912027 0.355869,-0.90845 0.355869,-0.870896 0.395212,-0.870897 0.397,-0.829765 0.3934234,-0.790424 0.4756846,-0.792211 0.4363423,-0.751082 0.4738964,-0.752869 0.515027,-0.711739 0.5132387,-0.672396 0.515027,-0.672396 0.5919234,-0.670608 0.6348423,-0.633054 0.6723963,-0.633054 0.7099504,-0.593712 0.7528693,-0.593712 0.7904234,-0.554369 0.8297657,-0.5543693 0.8708963,-0.552581 0.91023869,-0.515027 L 0.7844552,8.1300663 1.7733785,7.6150393 2.8427749,7.1804853 3.9103829,6.7048007 5.0173333,6.309589 6.163626,5.875035 7.3510493,5.4798233 8.6564997,5.1221657 10.003081,4.7662963 11.4659,4.410427 13.007405,4.0939 14.63117,3.777373 l 1.700662,-0.3147387 1.779347,-0.278973 1.858032,-0.2753964 1.938504,-0.2771846 2.056531,-0.2360541 2.097662,-0.2396306 2.217478,-0.236054 2.253243,-0.1985 2.37127,-0.1573694 2.455319,-0.1985 V -14.457801 H -112.27291 V 1.3649722 l 2.73072,0.2378424 2.65024,0.236054 2.53221,0.2771847 2.41241,0.316527 2.373054,0.316527 2.215689,0.316527 2.176347,0.3558693 2.056531,0.3952117 1.938504,0.397 1.85982,0.3952117 1.779347,0.4738963 1.663108,0.4363423 1.579058,0.4738964 1.464608,0.515027 1.384135,0.5132387 1.266108,0.5543693 1.226766,0.5543693 1.146293,0.633054 1.148081,0.633054 1.069396,0.7099507 1.028266,0.713527 0.988923,0.790423 0.949581,0.792212 0.90845,0.869108 0.870897,0.910238 0.831554,0.910239 0.751081,0.988923 0.752869,1.028266 0.670608,1.028266 0.674185,1.10695 0.591923,1.148081 0.552581,1.148081 0.515027,1.266108 0.475685,1.382347 0.434554,1.464608 0.434554,1.543293 0.355869,1.700662 0.357658,1.740004 0.314739,1.899162 0.277184,1.977847 0.237843,2.056531 0.236054,2.176347 0.159157,2.294374 0.159158,2.373058 0.118027,2.492874 0.07869,2.571558 0.07868,2.689585 v 2.76827 128.720983 1.26611 l -0.03755,1.22676 -0.08047,1.18564 -0.118027,1.14808 -0.119815,1.10874 -0.118027,1.02647 -0.1985,1.03006 -0.196712,0.94779 -0.237842,0.95137 -0.277185,0.86911 -0.275396,0.83155 -0.316527,0.79043 -0.35587,0.75108 -0.357657,0.71174 -0.395212,0.67239 -0.434554,0.63306 -0.436342,0.55437 -0.473897,0.55436 -0.473896,0.51503 -0.515027,0.43456 -0.593712,0.43455 -0.552581,0.39521 -0.633054,0.35587 -0.634842,0.31832 -0.670608,0.27539 -0.713527,0.23784 -0.711739,0.23785 -0.790423,0.15737 -0.792212,0.11802 -0.829765,0.0805 -0.831554,0.0787 h -0.869108 -1.385924 l -1.344792,-0.0787 -1.343005,-0.11982 -1.344792,-0.15916 -1.307239,-0.23605 -1.303662,-0.23784 -1.266108,-0.31474 -1.266108,-0.35766 -1.305451,-0.43455 -1.385923,-0.51503 -1.46282,-0.59192 -1.582635,-0.71174 -1.661319,-0.75287 -1.740005,-0.8709 -1.820477,-0.94779 -1.938504,-0.99071 -2.056527,-1.18564 -2.25503,-1.26611 -2.37306,-1.46282 -2.57156,-1.54329 -2.72893,-1.70066 -2.88808,-1.85982 -3.04546,-1.97785 -3.24395,-2.13521 -10.79948,18.71086 102.969634,60.36366 h 14.517324 l -0.159158,-3.20282 -0.157369,-3.36198 -0.118027,-3.52114 -0.159158,-3.63917 -0.119815,-3.79832 -0.118027,-3.9557 -0.07869,-4.07372 -0.07869,-4.27222 -0.08047,-4.35269 -0.07868,-4.54762 -0.07869,-4.66922 -0.03934,-4.8248 -0.03934,-4.98575 v -5.10198 l -0.03934,-5.26115 v -5.37917 z M -298.94516,9.4355167 h 69.18708 2.76827 l 2.68959,0.078685 2.53221,0.078685 2.41241,0.1180271 2.3355,0.1591576 2.2139,0.2360546 2.09766,0.237842 1.97785,0.318315 1.85803,0.354081 1.78114,0.397 1.74,0.434554 1.66132,0.475685 1.62198,0.552581 1.54329,0.552581 1.46461,0.634842 1.38234,0.672397 1.34659,0.711738 1.30545,0.751081 1.26432,0.831554 1.22676,0.908451 1.18742,0.990712 1.18743,1.028265 1.10695,1.106951 1.10695,1.187423 1.06939,1.266108 1.06761,1.30545 1.06761,1.423478 1.02827,1.543292 1.02826,1.621978 1.02827,1.700662 1.03005,1.818689 0.98714,1.899162 0.99071,1.977846 0.98713,2.135217 0.95137,2.255031 0.9478,2.373058 0.91023,2.532216 0.94959,2.650243 0.91023,2.730716 0.91024,2.92564 0.43456,1.50395 0.47389,1.621977 0.47569,1.700663 0.47568,1.781135 0.51324,1.899162 0.51503,1.977846 0.55258,2.095874 0.51324,2.135216 0.59371,2.255031 0.55437,2.374847 0.59371,2.451743 0.59371,2.530428 0.63306,2.612689 0.59371,2.728928 0.67239,2.8094 0.63127,2.92564 h 26.66159 L -141.90127,-14.4578 h -237.34697 v 12.7361876 l 2.01719,0.515027 1.93851,0.51502697 1.82047,0.55258104 1.77935,0.51502699 1.66311,0.55436933 1.58085,0.55436937 1.50395,0.552581 1.42347,0.5937117 1.3448,0.552581 1.22676,0.5937117 1.14808,0.5937116 1.10695,0.5937117 0.98893,0.633054 0.87089,0.5937117 0.82977,0.633054 0.75287,0.6723963 0.67239,0.633054 0.63306,0.6723964 0.63126,0.7117387 0.59371,0.7510809 0.55437,0.790424 0.51324,0.792211 0.51503,0.869108 0.47568,0.870897 0.43456,0.910238 0.39521,0.949581 0.35587,0.988924 0.35587,0.988923 0.31831,1.067608 0.2754,1.069397 0.27719,1.10695 0.19671,1.146293 0.1985,1.187423 0.1985,1.30545 0.19671,1.344793 0.15916,1.423477 0.15737,1.543293 0.15915,1.582635 0.11803,1.66132 0.11803,1.740004 0.0787,1.820477 0.0805,1.897374 0.0787,1.979635 0.0787,2.056532 0.0411,2.135216 0.0393,2.215689 v 2.255031 2.373058 224.372936 4.31156 l -0.0805,3.99504 -0.0787,3.71785 -0.15916,3.40311 -0.15737,3.12414 -0.23784,2.8094 -0.23605,2.49109 -0.31653,2.17635 -0.35766,1.97784 -0.39521,1.89916 -0.23784,0.86911 -0.23606,0.8709 -0.27718,0.83155 -0.23606,0.82977 -0.27897,0.75287 -0.31653,0.75108 -0.31473,0.75108 -0.31653,0.6724 -0.31653,0.67239 -0.35766,0.63306 -0.39521,0.63305 -0.35587,0.59371 -0.39521,0.55437 -0.39521,0.55258 -0.39521,0.51324 -0.43634,0.51503 -0.43456,0.51503 -0.47389,0.47389 -0.47569,0.47569 -0.51324,0.47389 -0.51502,0.43634 -0.51324,0.43456 -0.55437,0.43455 -0.55437,0.397 -1.14629,0.7493 -1.22677,0.75286 -1.34479,0.6724 -1.62198,0.6724 -1.81869,0.75108 -2.01898,0.75287 -2.25503,0.75108 -2.49108,0.79042 -2.73072,0.79221 -2.92743,0.82977 v 12.73798 h 111.19755 v -12.73798 l -2.80761,-0.75108 -2.57156,-0.75108 -2.37306,-0.71353 -2.17635,-0.71174 -1.97784,-0.67061 -1.74001,-0.67239 -1.54329,-0.67419 -1.30545,-0.63305 -1.18742,-0.63127 -1.1463,-0.67239 -1.06939,-0.75287 -1.06761,-0.79043 -0.98893,-0.87089 -0.91023,-0.8709 -0.90845,-0.94958 -0.83156,-1.02827 -0.39521,-0.51323 -0.35587,-0.59372 -0.35587,-0.59371 -0.35587,-0.63126 -0.35587,-0.67419 -0.31652,-0.71174 -0.31653,-0.75108 -0.27719,-0.75287 -0.31652,-0.82976 -0.27719,-0.82977 -0.23784,-0.91024 -0.27718,-0.91202 -0.23606,-0.9478 -0.1985,-0.98892 -0.23605,-1.03005 -0.15916,-1.06761 -0.1985,-1.10695 -0.19671,-1.18743 -0.15916,-1.26432 -0.15737,-1.34479 -0.27718,-2.92743 -0.23785,-3.24395 -0.1985,-3.56048 -0.11623,-3.87701 -0.0805,-4.15419 v -4.50828 z"
         style="fill:#000000;fill-opacity:1;fill-rule:evenodd;stroke:none;stroke-width:1.78828812"
         id="path18"
         inkscape:connector-curvature="0" /></g></g></svg>